<svg width="5" height="5" viewBox="0 0 5 5" fill="none" xmlns="http://www.w3.org/2000/svg">
<path d="M3.95833 3.54169V3.95835H1.45833V3.54169C1.45833 3.54169 1.45833 2.70835 2.70833 2.70835C3.95833 2.70835 3.95833 3.54169 3.95833 3.54169ZM3.33333 1.66669C3.33333 1.54307 3.29668 1.42224 3.228 1.31946C3.15933 1.21668 3.06171 1.13657 2.94751 1.08926C2.83331 1.04196 2.70764 1.02958 2.5864 1.0537C2.46516 1.07781 2.3538 1.13734 2.26639 1.22475C2.17898 1.31215 2.11946 1.42352 2.09534 1.54476C2.07123 1.66599 2.0836 1.79166 2.13091 1.90586C2.17821 2.02007 2.25832 2.11768 2.3611 2.18636C2.46388 2.25503 2.58472 2.29169 2.70833 2.29169C2.87409 2.29169 3.03306 2.22584 3.15028 2.10863C3.26749 1.99142 3.33333 1.83245 3.33333 1.66669ZM4 2.72085C4.11388 2.82592 4.20569 2.95261 4.27008 3.09354C4.33446 3.23448 4.37013 3.38682 4.375 3.54169V3.95835H5V3.54169C5 3.54169 5 2.82294 4 2.72085ZM3.75 1.04169C3.68705 1.04169 3.62449 1.05153 3.56458 1.07085C3.68647 1.24564 3.75182 1.4536 3.75182 1.66669C3.75182 1.87977 3.68647 2.08774 3.56458 2.26252C3.62449 2.28184 3.68705 2.29168 3.75 2.29169C3.91576 2.29169 4.07473 2.22584 4.19194 2.10863C4.30915 1.99142 4.375 1.83245 4.375 1.66669C4.375 1.50093 4.30915 1.34196 4.19194 1.22475C4.07473 1.10754 3.91576 1.04169 3.75 1.04169ZM1.66667 2.08335H1.04167V1.45835H0.625V2.08335H0V2.50002H0.625V3.12502H1.04167V2.50002H1.66667V2.08335Z" fill="black"/>
</svg>
