<svg width="2" height="2" viewBox="0 0 2 2" fill="none" xmlns="http://www.w3.org/2000/svg">
<path d="M0.500001 1.75V1.58333L0.583335 1.5H0.333335C0.287501 1.5 0.248279 1.48369 0.215668 1.45108C0.183057 1.41847 0.166723 1.37922 0.166668 1.33333V0.416667C0.166668 0.370833 0.183001 0.331611 0.215668 0.299C0.248335 0.266389 0.287557 0.250056 0.333335 0.25H1.66667C1.7125 0.25 1.75175 0.266333 1.78442 0.299C1.81708 0.331667 1.83339 0.370889 1.83333 0.416667V1.33333C1.83333 1.37917 1.81703 1.41842 1.78442 1.45108C1.75181 1.48375 1.71256 1.50006 1.66667 1.5H1.41667L1.5 1.58333V1.75H0.500001ZM0.333335 1.33333H1.66667V0.416667H0.333335V1.33333Z" fill="#1E1E1E"/>
</svg>
