<svg width="2" height="2" viewBox="0 0 2 2" fill="none" xmlns="http://www.w3.org/2000/svg">
<path d="M1.53125 0H0.46875C0.42731 0 0.387567 0.016462 0.358265 0.0457646C0.328962 0.0750671 0.3125 0.11481 0.3125 0.15625V1.84375C0.3125 1.88519 0.328962 1.92493 0.358265 1.95424C0.387567 1.98354 0.42731 2 0.46875 2H1.53125C1.57269 2 1.61243 1.98354 1.64174 1.95424C1.67104 1.92493 1.6875 1.88519 1.6875 1.84375V0.15625C1.6875 0.11481 1.67104 0.0750671 1.64174 0.0457646C1.61243 0.016462 1.57269 0 1.53125 0ZM1.53125 1.84375H0.46875V0.15625H1.53125V1.84375Z" fill="black"/>
<path d="M1 1.6875C1.05523 1.6875 1.1 1.64553 1.1 1.59375C1.1 1.54197 1.05523 1.5 1 1.5C0.944773 1.5 0.900002 1.54197 0.900002 1.59375C0.900002 1.64553 0.944773 1.6875 1 1.6875Z" fill="black"/>
</svg>
