<svg width="4" height="5" viewBox="0 0 4 5" fill="none" xmlns="http://www.w3.org/2000/svg">
<circle cx="1.91903" cy="2.24966" r="1.79233" fill="#EAEAEA"/>
<path d="M2.41667 1.66669V1.50002H3.58333V1.66669H2.41667ZM2.41667 1.37502L2.31042 0.706271C2.30764 0.706271 2.3045 0.706632 2.301 0.707354C2.2975 0.708076 2.29439 0.708409 2.29167 0.708354C2.25695 0.708354 2.22745 0.696187 2.20317 0.671854C2.17889 0.647521 2.16672 0.618021 2.16667 0.583354C2.16661 0.548687 2.17878 0.519187 2.20317 0.494854C2.22756 0.470521 2.25706 0.458354 2.29167 0.458354C2.32628 0.458354 2.35581 0.470521 2.38025 0.494854C2.4047 0.519187 2.41683 0.548687 2.41667 0.583354C2.41667 0.593076 2.41561 0.602104 2.4135 0.610437C2.41139 0.618771 2.40897 0.626409 2.40625 0.633354L2.66667 0.750021L2.92708 0.393771C2.91181 0.382659 2.89931 0.368076 2.88958 0.350021C2.87986 0.331965 2.875 0.312521 2.875 0.291687C2.875 0.256965 2.88717 0.227437 2.9115 0.203104C2.93583 0.178771 2.96533 0.166632 3 0.166687C3.03467 0.166743 3.0642 0.178909 3.08858 0.203187C3.11297 0.227465 3.12511 0.256965 3.125 0.291687C3.125 0.312521 3.12014 0.331965 3.11042 0.350021C3.1007 0.368076 3.0882 0.382659 3.07292 0.393771L3.33333 0.750021L3.59375 0.633354C3.59097 0.626409 3.58853 0.618771 3.58642 0.610437C3.58431 0.602104 3.58328 0.593076 3.58333 0.583354C3.58333 0.548632 3.5955 0.519104 3.61983 0.494771C3.64417 0.470437 3.67367 0.458298 3.70833 0.458354C3.743 0.458409 3.77253 0.470576 3.79692 0.494854C3.82131 0.519132 3.83345 0.548632 3.83333 0.583354C3.83322 0.618076 3.82108 0.647604 3.79692 0.671937C3.77275 0.696271 3.74322 0.708409 3.70833 0.708354C3.70556 0.708354 3.70245 0.708021 3.699 0.707354C3.69556 0.706687 3.69242 0.706326 3.68958 0.706271L3.58333 1.37502H2.41667ZM2.55833 1.20835H3.44167L3.49583 0.860437L3.27708 0.956271L3 0.575021L2.72292 0.956271L2.50417 0.860437L2.55833 1.20835Z" fill="#FFCD29"/>
</svg>
